<?xml version="1.0" standalone="no"?><!DOCTYPE svg PUBLIC "-//W3C//DTD SVG 1.1//EN" "http://www.w3.org/Graphics/SVG/1.1/DTD/svg11.dtd"><svg t="1596895220680" class="icon" viewBox="0 0 1024 1024" version="1.1" xmlns="http://www.w3.org/2000/svg" p-id="4611" xmlns:xlink="http://www.w3.org/1999/xlink" width="32" height="32"><defs><style type="text/css"></style></defs><path d="M856.210952 384.084871c-17.287475-6.606845-36.207076-12.817627-56.284398-18.475663 5.14446-20.225301 9.22695-39.71941 12.143015-57.981809 16.530169-103.437597-1.680001-176.173821-51.270507-204.803482-14.471514-8.356483-31.062616-12.595658-49.303253-12.595657-43.675683 0-96.822047 24.412248-153.689658 70.599228-14.362706 11.664258-29.204169 24.943233-44.141383 39.501793-14.954624-14.571618-29.796086-27.854945-44.141383-39.506146-56.871963-46.182628-110.02268-70.594876-153.69401-70.594875-18.240637 0-34.831738 4.239174-49.311957 12.595657-49.590506 28.62966-67.796324 101.365885-51.261803 204.79913 2.916065 18.262398 6.998555 37.76086 12.138662 57.986161-20.081674 5.658036-39.005627 11.87317-56.293102 18.480015-97.840494 37.403968-151.726755 89.536238-151.726755 146.799911 0 57.259321 53.886261 109.395943 151.731107 146.799912 17.27877 6.606845 36.207076 12.817627 56.28875 18.480015-5.135755 20.194835-9.218246 39.688944-12.138662 57.977456-16.538873 103.441949 1.666944 176.173821 51.261803 204.807834 14.471514 8.356483 31.062616 12.591306 49.303252 12.591306 43.675683 0 96.822047-24.407895 153.694011-70.594876 14.358354-11.659906 29.199816-24.943233 44.150087-39.510498 14.937214 14.558561 29.778677 27.837535 44.145735 39.506146 56.867611 46.182628 110.013975 70.599228 153.694011 70.599228 18.240637 0 34.827386-4.239174 49.303252-12.595658 49.590506-28.62966 67.796324-101.365885 51.266156-204.803482-2.920417-18.28416-7.002907-37.786974-12.138663-57.981808 20.05556-5.653683 38.979513-11.864466 56.280046-18.475663 97.844846-37.403968 151.731107-89.536238 151.731107-146.799912-0.004352-57.268026-53.890614-109.404648-151.73546-146.804263z m-144.98934-254.089325c11.368299 0 21.365613 2.44166 29.704687 7.255342 41.160033 23.76375 49.098693 107.415631 20.838981 218.609089-41.886873-9.614308-87.24691-16.69991-134.88757-21.069654-27.598157-39.070912-56.414968-74.812289-85.688774-106.288376 64.279638-62.630103 126.165491-98.506401 170.032676-98.506401zM339.392917 631.493361a1274.207042 1274.207042 0 0 0 32.172462 52.680664c-33.321478-3.995444-65.337255-9.440215-95.281321-16.212448 9.100733-29.304272 20.39069-59.753209 33.600027-90.61997a1270.298645 1270.298645 0 0 0 29.508832 54.151754zM276.28841 393.807987c29.95277-6.772233 61.968548-12.221357 95.276969-16.208096a1272.113569 1272.113569 0 0 0-32.176814 52.676312 1271.569527 1271.569527 0 0 0-29.50448 54.151754c-13.19628-30.853704-24.486237-61.298288-33.595675-90.61997z m54.765433 137.06809a1248.502151 1248.502151 0 0 1 42.770397-80.727112 1248.946089 1248.946089 0 0 1 48.554651-77.441098 1251.361635 1251.361635 0 0 1 91.281525-3.294718c30.81018 0 61.515905 1.109845 91.290229 3.29907a1247.53158 1247.53158 0 0 1 48.550299 77.436746 1249.651167 1249.651167 0 0 1 42.774749 80.735817 1247.727435 1247.727435 0 0 1-42.774749 80.740169 1247.414067 1247.414067 0 0 1-48.554651 77.441099c-29.769972 2.189225-60.475697 3.294718-91.285877 3.294718-30.805828 0-61.5072-1.105493-91.277172-3.294718a1250.034173 1250.034173 0 0 1-48.554651-77.441099 1247.422772 1247.422772 0 0 1-42.77475-80.748874z m356.869719 100.617284a1263.047655 1263.047655 0 0 0 29.513185-54.156106c13.209337 30.871113 24.503647 61.324402 33.604379 90.624322-29.944066 6.772233-61.959843 12.217005-95.285673 16.212448a1272.474813 1272.474813 0 0 0 32.168109-52.680664z m0.004352-201.22151a1271.969942 1271.969942 0 0 0-32.168108-52.67196c33.312773 3.991091 65.32855 9.440215 95.28132 16.212449-9.11379 29.326034-20.403747 59.774971-33.604379 90.619969a1268.884136 1268.884136 0 0 0-29.508833-54.160458z m-112.603614-99.089614c-20.712763-1.009742-41.43423-1.523317-61.663884-1.523317-20.225301 0-40.942417 0.513576-61.65518 1.523317 20.12955-26.871317 40.846665-51.866778 61.659532-74.381407 20.817219 22.527687 41.534334 47.518795 61.659532 74.381407zM286.394532 137.255241c8.339074-4.813683 18.332036-7.255343 29.704688-7.255343 43.867186 0 105.761744 35.876298 170.037028 98.510753-29.269454 31.467383-58.086265 67.208759-85.688774 106.284024-47.645013 4.369744-93.005049 11.455346-134.883218 21.065302-28.264064-111.193458-20.329757-194.840987 20.830276-218.604736z m-227.265883 393.629541c0-47.58408 68.470936-96.299767 178.889678-127.405906 12.61742 41.103453 29.16935 83.952192 49.216206 127.405906-20.042503 43.453714-36.594434 86.302453-49.216206 127.405906-110.418742-31.106139-178.889679-79.821826-178.889678-127.405906z m256.966218 400.884884c-11.368299 0-21.361261-2.44166-29.700335-7.255342-41.164386-23.76375-49.098693-107.415631-20.83898-218.609089 41.895578 9.618661 87.259967 16.704262 134.891922 21.069654 27.593805 39.062208 56.410616 74.807936 85.688774 106.279672-64.279638 62.638807-126.169843 98.515106-170.041381 98.515105z m135.914722-201.182339c20.712763 1.009742 41.425526 1.52767 61.650827 1.52767 20.229654 0 40.946769-0.513576 61.659532-1.52767-20.112141 26.849555-40.829256 51.845016-61.65518 74.381408-20.821571-22.527687-41.534334-47.518795-61.655179-74.381408z m288.912358 193.926997c-8.339074 4.813683-18.332036 7.255343-29.700335 7.255342-43.867186 0-105.757391-35.876298-170.037029-98.515105 29.278158-31.471735 58.094969-67.217464 85.688774-106.279672 47.645013-4.365392 93.009402-11.455346 134.891923-21.074007 28.264064 111.202163 20.325405 194.849691-20.843333 218.613442z m48.389262-266.223636c-12.626124-41.125215-29.182407-83.973954-49.22491-127.405906 20.051208-43.466771 36.603138-86.31551 49.220558-127.401554 110.401333 31.106139 178.880974 79.826179 178.880973 127.405906-0.004352 47.571023-68.479641 96.291062-178.876621 127.401554z" fill="#00BDFF" p-id="4612"></path><path d="M511.941243 530.802088m-88.439449 0a88.43945 88.43945 0 1 0 176.878899 0 88.43945 88.43945 0 1 0-176.878899 0Z" fill="#00BDFF" p-id="4613"></path></svg>